<svg version="1.2" xmlns="http://www.w3.org/2000/svg" viewBox="0 0 47 47" width="47" height="47"><style>.a{fill:#47b8d1}.b{fill:#d6368c}</style><path fill-rule="evenodd" class="a" d="m-80 35l-5.4-9.2h-6.3v9.2h-2.3v-23h9.1q2.8 0 4.8 2 2 2 2 4.9c0 1.5-0.4 3-1.4 4.2-0.9 1.2-2.1 2-3.5 2.4l5.6 9.5zm-11.7-20.8v9.4h6.8q1.9 0 3.2-1.3 1.3-1.5 1.4-3.4-0.1-2-1.4-3.4-1.3-1.3-3.2-1.3z"/><path class="a" d="m-67.8 24.5h10v-2.2h-10v-8.1h10.9v-2.2h-13.2v23h13.3v-2.2h-11z"/><path fill-rule="evenodd" class="a" d="m-40.7 12q3.1 0 5.1 2.1 2.1 2 2.1 5.1 0 3.1-2.1 5.2-2 2.1-5.1 2.1h-5.8v8.5h-2.3v-23zm0 12.3q2.1 0 3.5-1.4 1.4-1.5 1.4-3.7c0-1.4-0.5-2.6-1.4-3.6q-1.4-1.4-3.5-1.4h-5.9v10.1z"/><path fill-rule="evenodd" class="a" d="m-11.6 35l-5.3-9.2h-6.4v9.2h-2.3v-23h9.1q2.8 0 4.8 2 2 2 2 4.9c0 1.5-0.4 3-1.3 4.2-1 1.2-2.1 2-3.6 2.4l5.6 9.5zm-11.7-20.8v9.4h6.8q1.9 0 3.2-1.3 1.4-1.5 1.4-3.4 0-2-1.4-3.4-1.3-1.3-3.2-1.3z"/><path class="a" d="m70.9 12h-12.9v23h2.3v-10.2h10.1v-2.2h-10.1v-8.4h10.6z"/><path class="a" d="m79 35h2.3v-23h-2.3z"/><path class="a" d="m88.6 12v2.2h7.1v20.8h2.3v-20.8h7v-2.2z"/><path fill-rule="evenodd" class="b" d="m22.8 46.5c1.1-1.3 2-2.8 2.7-4.4 1.5-3.5 2.2-7.9 2.1-11.9-0.2-4.3-1.3-7.9-4.2-12.1-4-5.7-10.6-7.5-11.3-7.7 3.8-2.2 4.5-4.9 4.5-4.9 0.4-1.4 0.4-2.6 0.3-3.7q-0.1-0.4-0.2-0.8c-9.6 3-16.6 11.9-16.6 22.5 0 12.6 9.8 22.8 22.2 23.5q0.2-0.2 0.5-0.5z"/><path fill-rule="evenodd" class="b" d="m23.6 0q-2.1 0-4.1 0.4c1.1 1.3 1.3 2.6 1.3 4.3-0.1 4.2-3.1 5.7-3.1 5.7 0 0 6.6 1.3 11.7 8.3 6.5 9.2 2.6 18.9 2.6 18.9-1.4 4.1-4 7.2-6.5 9.3q0 0-0.1 0.1c12.1-1 21.7-11.1 21.7-23.5 0-13-10.5-23.5-23.5-23.5z"/></svg>