<?xml version="1.0" encoding="UTF-8"?>
<svg width="1600px" height="152px" viewBox="0 0 1600 152" version="1.1" xmlns="http://www.w3.org/2000/svg" xmlns:xlink="http://www.w3.org/1999/xlink">
    <title>General/Header/Desktop@2x</title>
    <defs>
        <rect id="path-1" x="0" y="0" width="68" height="40" rx="20"></rect>
        <filter x="-73.5%" y="-112.5%" width="276.5%" height="400.0%" filterUnits="objectBoundingBox" id="filter-2">
            <feOffset dx="10" dy="15" in="SourceAlpha" result="shadowOffsetOuter1"></feOffset>
            <feGaussianBlur stdDeviation="17.5" in="shadowOffsetOuter1" result="shadowBlurOuter1"></feGaussianBlur>
            <feComposite in="shadowBlurOuter1" in2="SourceAlpha" operator="out" result="shadowBlurOuter1"></feComposite>
            <feColorMatrix values="0 0 0 0 0.18676404   0 0 0 0 0.0197547101   0 0 0 0 0.0197547101  0 0 0 0.2 0" type="matrix" in="shadowBlurOuter1"></feColorMatrix>
        </filter>
        <rect id="path-3" x="0" y="0" width="173" height="40" rx="20"></rect>
        <filter x="-28.9%" y="-112.5%" width="169.4%" height="400.0%" filterUnits="objectBoundingBox" id="filter-4">
            <feOffset dx="10" dy="15" in="SourceAlpha" result="shadowOffsetOuter1"></feOffset>
            <feGaussianBlur stdDeviation="17.5" in="shadowOffsetOuter1" result="shadowBlurOuter1"></feGaussianBlur>
            <feColorMatrix values="0 0 0 0 0.034512478   0 0 0 0 0.281818261   0 0 0 0 0.336531929  0 0 0 0.2 0" type="matrix" in="shadowBlurOuter1"></feColorMatrix>
        </filter>
        <rect id="path-5" x="0" y="0" width="40" height="40" rx="20"></rect>
        <filter x="-137.5%" y="-125.0%" width="450.0%" height="450.0%" filterUnits="objectBoundingBox" id="filter-6">
            <feOffset dx="15" dy="20" in="SourceAlpha" result="shadowOffsetOuter1"></feOffset>
            <feGaussianBlur stdDeviation="20" in="shadowOffsetOuter1" result="shadowBlurOuter1"></feGaussianBlur>
            <feComposite in="shadowBlurOuter1" in2="SourceAlpha" operator="out" result="shadowBlurOuter1"></feComposite>
            <feColorMatrix values="0 0 0 0 0.18676404   0 0 0 0 0.0197547101   0 0 0 0 0.0197547101  0 0 0 0.1 0" type="matrix" in="shadowBlurOuter1"></feColorMatrix>
        </filter>
        <rect id="path-7" x="0" y="0" width="1216" height="71" rx="35.5"></rect>
        <filter x="-7.2%" y="-116.2%" width="118.5%" height="416.9%" filterUnits="objectBoundingBox" id="filter-8">
            <feOffset dx="25" dy="30" in="SourceAlpha" result="shadowOffsetOuter1"></feOffset>
            <feGaussianBlur stdDeviation="32.5" in="shadowOffsetOuter1" result="shadowBlurOuter1"></feGaussianBlur>
            <feComposite in="shadowBlurOuter1" in2="SourceAlpha" operator="out" result="shadowBlurOuter1"></feComposite>
            <feColorMatrix values="0 0 0 0 0.18676404   0 0 0 0 0.0197547101   0 0 0 0 0.0530397863  0 0 0 0.05 0" type="matrix" in="shadowBlurOuter1"></feColorMatrix>
        </filter>
    </defs>
    <g id="Symbols" stroke="none" stroke-width="1" fill="none" fill-rule="evenodd">
        <g id="General/Header/Desktop">
            <g id="Menu-Copy" transform="translate(1068.000000, 31.000000)" fill="#0A667B" font-family="Gilroy-Bold, Gilroy" font-size="12" font-weight="bold" letter-spacing="1" line-spacing="18">
                <g id="3">
                    <text id="Text">
                        <tspan x="0" y="9">Novinky</tspan>
                    </text>
                </g>
            </g>
            <g id="Menu-Copy-5" transform="translate(1150.000000, 31.000000)" fill="#0A667B" font-family="Gilroy-Bold, Gilroy" font-size="12" font-weight="bold" letter-spacing="1" line-spacing="18">
                <g id="3">
                    <text id="Text">
                        <tspan x="0" y="9">FAQ</tspan>
                    </text>
                </g>
            </g>
            <g id="Jazyk" transform="translate(1500.000000, 20.000000)">
                <g id="Rectangle">
                    <use fill="black" fill-opacity="1" filter="url(#filter-2)" xlink:href="#path-1"></use>
                    <use fill-opacity="0.7" fill="#FFFFFF" fill-rule="evenodd" xlink:href="#path-1"></use>
                </g>
                <g id="Icons/Czech" opacity="0.8" transform="translate(8.000000, 8.000000)" fill-rule="nonzero">
                    <ellipse id="Oval" fill="#F3F4F5" cx="12.0000117" cy="12" rx="11.9999883" ry="12"></ellipse>
                    <path d="M10.9565284,12 C10.9565284,12 3.52173875,20.4869531 3.51470751,20.4852656 C5.68623663,22.6568438 8.68628058,24 12.0000117,24 C18.6273802,24 24,18.627375 24,12 L10.9565284,12 Z" id="Path" fill="#D80027"></path>
                    <path d="M3.51470751,3.5146875 C-1.17156917,8.20096875 -1.17156917,15.7989844 3.51470751,20.4853125 C5.45125249,18.5487656 7.31373505,16.6862813 12.0000117,12 L3.51470751,3.5146875 Z" id="Path" fill="#0052B4"></path>
                </g>
                <g id="Icons/chevron-down" transform="translate(45.000000, 17.500000)" fill="#0A667B">
                    <path d="M9.75601628,0.244261541 C9.59972383,0.0878688993 9.38768564,0 9.16658389,0 C8.94548213,0 8.73344394,0.0878688993 8.5771515,0.244261541 L5.19609248,3.62476501 C5.08762252,3.73320222 4.9117927,3.73320222 4.80332274,3.62476501 L1.42281927,0.244261541 C1.09743816,-0.081272971 0.569766788,-0.0813973298 0.244232271,0.243983778 C-0.0813022458,0.569364886 -0.0814266126,1.09703626 0.24395449,1.42257078 L3.6250135,4.80362979 C3.98966582,5.16831932 4.48426282,5.37320289 4.99998538,5.37320289 C5.51570795,5.37320289 6.01030495,5.16831932 6.37495727,4.80362979 L9.75601628,1.42257078 C10.0813279,1.09716089 10.0813279,0.56967143 9.75601628,0.244261541 Z" id="Path"></path>
                </g>
            </g>
            <g id="Controls/Buttons/Middle/Primary/Text/Default" transform="translate(1315.000000, 20.000000)">
                <g id="Rectangle">
                    <use fill="black" fill-opacity="1" filter="url(#filter-4)" xlink:href="#path-3"></use>
                    <use fill="#47B8D1" fill-rule="evenodd" xlink:href="#path-3"></use>
                </g>
                <text id="Primary" font-family="Gilroy-Bold, Gilroy" font-size="15" font-weight="bold" line-spacing="18" letter-spacing="1" fill="#FFFFFF">
                    <tspan x="24" y="20">Kontaktujte nás</tspan>
                </text>
            </g>
            <g id="Controls/Buttons/Middle/Secondary/Icon/Default" transform="translate(1263.000000, 20.000000)">
                <g id="Rectangle">
                    <use fill="black" fill-opacity="1" filter="url(#filter-6)" xlink:href="#path-5"></use>
                    <use fill-opacity="0.7" fill="#FFFFFF" fill-rule="evenodd" xlink:href="#path-5"></use>
                </g>
                <g id="Icons/Star" transform="translate(15.000000, 12.000000)" fill="#0A667B">
                    <path d="M4.96847577,9.01210035 C2.12732507,9.26891235 -0.0372332045,12.0036278 0.000485471839,14.856091 L0.000485471839,15.000747 C0.000485471839,15.5530272 0.448203347,16.0007763 1.00048352,16.0007763 C1.55276369,16.0007763 2.00048157,15.5530272 2.00048157,15.000747 L2.00048157,14.8160911 C1.97041912,13.0646883 3.2629166,11.2371585 5.00047571,11.0154402 C6.83462837,10.8335655 8.46896893,12.1730004 8.65084358,14.0071531 C8.66159356,14.1155904 8.66703104,14.2244652 8.66712479,14.3334337 L8.66712479,15.0007782 C8.66712479,15.5530584 9.11484267,16.0007763 9.66712284,16.0007763 C10.219403,16.0007763 10.6671209,15.5530584 10.6671209,15.0007782 L10.6671209,14.3334337 C10.6638709,11.3845957 8.27071932,8.99675663 5.32191258,8.99999341 C5.20397531,9.00013162 5.08610054,9.00416286 4.96847577,9.01210035 Z M5.33379537,7.99998438 C7.54290824,7.99998438 9.33377974,6.20911287 9.33377974,4 C9.33377974,1.7908715 7.54290824,0 5.33379537,0 C3.12466687,0 1.33379537,1.7908715 1.33379537,4 C1.33601411,6.20823787 3.12557312,7.99779688 5.33379537,7.99998438 Z M5.33379146,1.99999609 C6.4383479,1.99999609 7.33379146,2.89543184 7.33379146,3.99999609 C7.33379146,5.10455253 6.4383479,5.99999609 5.33379146,5.99999609 C4.22922721,5.99999609 3.33379146,5.10455253 3.33379146,3.99999609 C3.33379146,2.89543184 4.22922721,1.99999609 5.33379146,1.99999609 Z" id="Shape"></path>
                </g>
            </g>
            <g id="General/Logo" transform="translate(32.000000, 20.000000)">
                <g id="REPR" transform="translate(0.000000, 10.212812)" fill="#47B8D1">
                    <path d="M14.0783266,19.5744681 L9.35794651,11.4930091 C10.5725472,11.1294833 11.5663115,10.4583587 12.3392392,9.42370821 C13.1397715,8.38905775 13.5262354,7.18662614 13.5262354,5.87234043 C13.5262354,4.25045593 12.9465396,2.88024316 11.8147525,1.7337386 C10.6829655,0.587234043 9.33034195,0 7.72927736,0 L0,0 L0,19.5744681 L1.93231934,19.5744681 L1.93231934,11.7446809 L7.34281349,11.7446809 L11.8699617,19.5744681 L14.0783266,19.5744681 Z M7.72927736,1.84559271 C8.80585527,1.84559271 9.71680582,2.23708207 10.462129,3.02006079 C11.2074522,3.80303951 11.593916,4.75379939 11.593916,5.87234043 C11.593916,6.96291793 11.2074522,7.91367781 10.462129,8.72462006 C9.71680582,9.50759878 8.80585527,9.89908815 7.72927736,9.89908815 L1.93231934,9.89908815 L1.93231934,1.84559271 L7.72927736,1.84559271 Z" id="Shape"></path>
                    <polygon id="Path" points="22.2216724 10.6261398 30.7790866 10.6261398 30.7790866 8.78054711 22.2216724 8.78054711 22.2216724 1.84559271 31.4692007 1.84559271 31.4692007 0 20.2893531 0 20.2893531 19.5744681 31.6072235 19.5744681 31.6072235 17.7288754 22.2216724 17.7288754"></polygon>
                    <path d="M38.3703412,0 L38.3703412,19.5744681 L40.3026605,19.5744681 L40.3026605,12.3039514 L45.2714817,12.3039514 C47.0105691,12.3039514 48.4460063,11.7167173 49.6053979,10.5422492 C50.7647895,9.36778116 51.3444853,7.91367781 51.3444853,6.15197568 C51.3444853,4.39027356 50.7647895,2.93617021 49.6053979,1.76170213 C48.4460063,0.587234043 47.0105691,0 45.2714817,0 L38.3703412,0 Z M40.3026605,10.4583587 L40.3026605,1.84559271 L45.2714817,1.84559271 C46.4584779,1.84559271 47.4522421,2.26504559 48.2251698,3.07598784 C49.0257021,3.88693009 49.412166,4.89361702 49.412166,6.15197568 C49.412166,7.41033435 49.0257021,8.4449848 48.2251698,9.25592705 C47.4522421,10.0668693 46.4584779,10.4583587 45.2714817,10.4583587 L40.3026605,10.4583587 Z" id="Shape"></path>
                    <path d="M72.1859296,19.5744681 L67.4655495,11.4930091 C68.6801503,11.1294833 69.6739145,10.4583587 70.4468422,9.42370821 C71.2473745,8.38905775 71.6338384,7.18662614 71.6338384,5.87234043 C71.6338384,4.25045593 71.0541426,2.88024316 69.9223556,1.7337386 C68.7905685,0.587234043 67.437945,0 65.8368804,0 L58.107603,0 L58.107603,19.5744681 L60.0399224,19.5744681 L60.0399224,11.7446809 L65.4504165,11.7446809 L69.9775647,19.5744681 L72.1859296,19.5744681 Z M65.8368804,1.84559271 C66.9134583,1.84559271 67.8244089,2.23708207 68.569732,3.02006079 C69.3150552,3.80303951 69.7015191,4.75379939 69.7015191,5.87234043 C69.7015191,6.96291793 69.3150552,7.91367781 68.569732,8.72462006 C67.8244089,9.50759878 66.9134583,9.89908815 65.8368804,9.89908815 L60.0399224,9.89908815 L60.0399224,1.84559271 L65.8368804,1.84559271 Z" id="Shape"></path>
                </g>
                <g id="FIT" transform="translate(129.085427, 10.212812)" fill="#47B8D1">
                    <polygon id="Path" points="10.9869382 0 0 0 0 19.5744681 1.94705233 19.5744681 1.94705233 10.9057751 10.5697127 10.9057751 10.5697127 9.06018237 1.94705233 9.06018237 1.94705233 1.84559271 10.9869382 1.84559271"></polygon>
                    <polygon id="Path" points="17.8016213 19.5744681 19.7486737 19.5744681 19.7486737 0 17.8016213 0"></polygon>
                    <polygon id="Path" points="26.0070562 0 26.0070562 1.84559271 31.9872884 1.84559271 31.9872884 19.5744681 33.9343407 19.5744681 33.9343407 1.84559271 39.9145729 1.84559271 39.9145729 0"></polygon>
                </g>
                <path d="M99.16701,39.5716337 C100.133265,38.4475375 100.862274,37.1536286 101.448798,35.8457968 C102.786375,32.8638035 103.352902,29.0685807 103.230189,25.6935531 C103.097022,22.021125 102.176217,19.0188181 99.7074037,15.440426 C96.3148311,10.5227047 90.7281874,8.99324915 90.1078027,8.85265153 C93.3067607,7.01712221 93.9296451,4.65138466 93.9296451,4.65138466 C94.2898319,3.5122244 94.3041484,2.43925458 94.1530291,1.52856545 C94.1134881,1.29050812 94.0655389,1.08782843 94.019635,0.876703762 C85.856236,3.38418014 79.917132,11.0074926 79.917132,20.0278799 C79.917132,30.7180921 88.2630105,39.4266995 98.764328,40.0000456 C98.8997673,39.8580786 99.0397516,39.7197634 99.16701,39.5716337" id="Fill-14" fill="#D6368C"></path>
                <path d="M99.8575231,-3.55271368e-15 C98.6692478,-3.55271368e-15 97.5118781,0.123707646 96.3808691,0.32387666 C97.305765,1.46121098 97.5343756,2.53463728 97.505288,4.00862986 C97.4350686,7.57720744 94.8983088,8.84646614 94.8983088,8.84646614 C94.8983088,8.84646614 100.492906,9.93198933 104.803103,15.9094424 C110.327481,23.7096431 106.991493,31.9925775 106.991493,31.9925775 C105.777084,35.5241798 103.593239,38.1690584 101.466887,39.9269851 C101.466887,39.9269851 101.463479,39.9415926 101.435982,39.9753726 C111.708461,39.1648821 119.798005,30.5535061 119.798005,20.027857 C119.798005,8.96675015 110.870374,-3.55271368e-15 99.8575231,-3.55271368e-15" id="Fill-16" fill="#D6368C"></path>
            </g>
            <g id="Icons/search" transform="translate(1211.000000, 32.000000)" fill="#0A667B">
                <path d="M15.7080117,14.2980212 L12.6109847,11.199686 C14.9283277,8.10290815 14.2964638,3.71387254 11.199686,1.39652952 C8.10290815,-0.920813508 3.71387254,-0.288949607 1.39652952,2.80782824 C-0.920813508,5.90460608 -0.288949607,10.2936417 2.80782824,12.6109847 C5.29541665,14.4724713 8.71206644,14.4724713 11.199686,12.6109847 L14.2980212,15.7093199 C14.6873804,16.0986791 15.3186525,16.0986791 15.7079806,15.7093199 C16.0973398,15.3199606 16.0973398,14.6886885 15.7079806,14.2993604 L15.7080117,14.2980212 Z M7.02957735,12.0129768 C4.27730814,12.0129768 2.04617793,9.78184657 2.04617793,7.02957735 C2.04617793,4.27730814 4.27730814,2.04617793 7.02957735,2.04617793 C9.78184657,2.04617793 12.0129768,4.27730814 12.0129768,7.02957735 C12.010049,9.78060072 9.78063186,12.010049 7.02957735,12.0129768 Z" id="Shape"></path>
            </g>
            <g id="Titulní-menu" transform="translate(192.000000, 81.000000)">
                <g id="Rectangle">
                    <use fill="black" fill-opacity="1" filter="url(#filter-8)" xlink:href="#path-7"></use>
                    <use fill-opacity="0.8" fill="#FFFFFF" fill-rule="evenodd" xlink:href="#path-7"></use>
                </g>
                <g id="3" transform="translate(130.000000, 23.000000)" fill="#0A667B">
                    <text id="Text" font-family="Gilroy-Bold, Gilroy" font-size="15" font-weight="bold" line-spacing="20" letter-spacing="1">
                        <tspan x="0.21" y="12">Kliniky</tspan>
                    </text>
                    <g id="Icons/chevron-down" transform="translate(65.000000, 10.500000)" fill-opacity="0.2">
                        <path d="M9.75601628,0.244261541 C9.59972383,0.0878688993 9.38768564,0 9.16658389,0 C8.94548213,0 8.73344394,0.0878688993 8.5771515,0.244261541 L5.19609248,3.62476501 C5.08762252,3.73320222 4.9117927,3.73320222 4.80332274,3.62476501 L1.42281927,0.244261541 C1.09743816,-0.081272971 0.569766788,-0.0813973298 0.244232271,0.243983778 C-0.0813022458,0.569364886 -0.0814266126,1.09703626 0.24395449,1.42257078 L3.6250135,4.80362979 C3.98966582,5.16831932 4.48426282,5.37320289 4.99998538,5.37320289 C5.51570795,5.37320289 6.01030495,5.16831932 6.37495727,4.80362979 L9.75601628,1.42257078 C10.0813279,1.09716089 10.0813279,0.56967143 9.75601628,0.244261541 Z" id="Path"></path>
                    </g>
                </g>
                <g id="3" transform="translate(254.000000, 23.000000)" fill="#0A667B">
                    <text id="Text" font-family="Gilroy-Bold, Gilroy" font-size="15" font-weight="bold" line-spacing="20" letter-spacing="1">
                        <tspan x="0.4725" y="12">Neplodnost</tspan>
                    </text>
                    <g id="Icons/chevron-down" transform="translate(104.000000, 10.500000)" fill-opacity="0.2">
                        <path d="M9.75601628,0.244261541 C9.59972383,0.0878688993 9.38768564,0 9.16658389,0 C8.94548213,0 8.73344394,0.0878688993 8.5771515,0.244261541 L5.19609248,3.62476501 C5.08762252,3.73320222 4.9117927,3.73320222 4.80332274,3.62476501 L1.42281927,0.244261541 C1.09743816,-0.081272971 0.569766788,-0.0813973298 0.244232271,0.243983778 C-0.0813022458,0.569364886 -0.0814266126,1.09703626 0.24395449,1.42257078 L3.6250135,4.80362979 C3.98966582,5.16831932 4.48426282,5.37320289 4.99998538,5.37320289 C5.51570795,5.37320289 6.01030495,5.16831932 6.37495727,4.80362979 L9.75601628,1.42257078 C10.0813279,1.09716089 10.0813279,0.56967143 9.75601628,0.244261541 Z" id="Path"></path>
                    </g>
                </g>
                <g id="3" transform="translate(417.000000, 23.000000)" fill="#0A667B">
                    <text id="Text" font-family="Gilroy-Bold, Gilroy" font-size="15" font-weight="bold" line-spacing="20" letter-spacing="1">
                        <tspan x="0.14" y="12">Genetika</tspan>
                    </text>
                    <g id="Icons/chevron-down" transform="translate(85.000000, 10.500000)" fill-opacity="0.2">
                        <path d="M9.75601628,0.244261541 C9.59972383,0.0878688993 9.38768564,0 9.16658389,0 C8.94548213,0 8.73344394,0.0878688993 8.5771515,0.244261541 L5.19609248,3.62476501 C5.08762252,3.73320222 4.9117927,3.73320222 4.80332274,3.62476501 L1.42281927,0.244261541 C1.09743816,-0.081272971 0.569766788,-0.0813973298 0.244232271,0.243983778 C-0.0813022458,0.569364886 -0.0814266126,1.09703626 0.24395449,1.42257078 L3.6250135,4.80362979 C3.98966582,5.16831932 4.48426282,5.37320289 4.99998538,5.37320289 C5.51570795,5.37320289 6.01030495,5.16831932 6.37495727,4.80362979 L9.75601628,1.42257078 C10.0813279,1.09716089 10.0813279,0.56967143 9.75601628,0.244261541 Z" id="Path"></path>
                    </g>
                </g>
                <g id="3" transform="translate(561.000000, 23.000000)" fill="#0A667B">
                    <text id="Text" font-family="Gilroy-Bold, Gilroy" font-size="15" font-weight="bold" line-spacing="20" letter-spacing="1">
                        <tspan x="0.2375" y="12">Gynekologie</tspan>
                    </text>
                    <g id="Icons/chevron-down" transform="translate(112.000000, 10.500000)" fill-opacity="0.2">
                        <path d="M9.75601628,0.244261541 C9.59972383,0.0878688993 9.38768564,0 9.16658389,0 C8.94548213,0 8.73344394,0.0878688993 8.5771515,0.244261541 L5.19609248,3.62476501 C5.08762252,3.73320222 4.9117927,3.73320222 4.80332274,3.62476501 L1.42281927,0.244261541 C1.09743816,-0.081272971 0.569766788,-0.0813973298 0.244232271,0.243983778 C-0.0813022458,0.569364886 -0.0814266126,1.09703626 0.24395449,1.42257078 L3.6250135,4.80362979 C3.98966582,5.16831932 4.48426282,5.37320289 4.99998538,5.37320289 C5.51570795,5.37320289 6.01030495,5.16831932 6.37495727,4.80362979 L9.75601628,1.42257078 C10.0813279,1.09716089 10.0813279,0.56967143 9.75601628,0.244261541 Z" id="Path"></path>
                    </g>
                </g>
                <g id="3" transform="translate(732.000000, 23.000000)" fill="#0A667B">
                    <text id="Text" font-family="Gilroy-Bold, Gilroy" font-size="15" font-weight="bold" line-spacing="20" letter-spacing="1">
                        <tspan x="0.355" y="12">Dárcovství</tspan>
                    </text>
                    <g id="Icons/chevron-down" transform="translate(97.000000, 10.500000)" fill-opacity="0.2">
                        <path d="M9.75601628,0.244261541 C9.59972383,0.0878688993 9.38768564,0 9.16658389,0 C8.94548213,0 8.73344394,0.0878688993 8.5771515,0.244261541 L5.19609248,3.62476501 C5.08762252,3.73320222 4.9117927,3.73320222 4.80332274,3.62476501 L1.42281927,0.244261541 C1.09743816,-0.081272971 0.569766788,-0.0813973298 0.244232271,0.243983778 C-0.0813022458,0.569364886 -0.0814266126,1.09703626 0.24395449,1.42257078 L3.6250135,4.80362979 C3.98966582,5.16831932 4.48426282,5.37320289 4.99998538,5.37320289 C5.51570795,5.37320289 6.01030495,5.16831932 6.37495727,4.80362979 L9.75601628,1.42257078 C10.0813279,1.09716089 10.0813279,0.56967143 9.75601628,0.244261541 Z" id="Path"></path>
                    </g>
                </g>
                <g id="3" transform="translate(1013.000000, 23.000000)" fill="#0A667B">
                    <text id="Text" font-family="Gilroy-Bold, Gilroy" font-size="15" font-weight="bold" line-spacing="20" letter-spacing="1">
                        <tspan x="0.1175" y="12">Ceník</tspan>
                    </text>
                    <g id="Icons/chevron-down" transform="translate(58.000000, 10.500000)" fill-opacity="0.2">
                        <path d="M9.75601628,0.244261541 C9.59972383,0.0878688993 9.38768564,0 9.16658389,0 C8.94548213,0 8.73344394,0.0878688993 8.5771515,0.244261541 L5.19609248,3.62476501 C5.08762252,3.73320222 4.9117927,3.73320222 4.80332274,3.62476501 L1.42281927,0.244261541 C1.09743816,-0.081272971 0.569766788,-0.0813973298 0.244232271,0.243983778 C-0.0813022458,0.569364886 -0.0814266126,1.09703626 0.24395449,1.42257078 L3.6250135,4.80362979 C3.98966582,5.16831932 4.48426282,5.37320289 4.99998538,5.37320289 C5.51570795,5.37320289 6.01030495,5.16831932 6.37495727,4.80362979 L9.75601628,1.42257078 C10.0813279,1.09716089 10.0813279,0.56967143 9.75601628,0.244261541 Z" id="Path"></path>
                    </g>
                </g>
                <g id="Menu-Copy" transform="translate(887.000000, 23.000000)" fill="#0A667B" font-family="Gilroy-Bold, Gilroy" font-size="15" font-weight="bold" letter-spacing="1" line-spacing="20">
                    <g id="3">
                        <text id="Text">
                            <tspan x="0.3375" y="12">Úspěšnost</tspan>
                        </text>
                    </g>
                </g>
            </g>
        </g>
    </g>
</svg>